Coordinates
version=1
nRows=13
nColumns=34
inDegrees=yes

Units are S.I. units (second, meters, Newtons, ...)
If the header above contains a line with 'inDegrees', this indicates whether rotational values are in degrees (yes) or radians (no).

endheader
time	pelvis_tilt	pelvis_list	pelvis_rotation	pelvis_tx	pelvis_ty	pelvis_tz	hip_flexion_r	hip_adduction_r	hip_rotation_r	knee_angle_r	ankle_angle_r	subtalar_angle_r	mtp_angle_r	hip_flexion_l	hip_adduction_l	hip_rotation_l	knee_angle_l	ankle_angle_l	subtalar_angle_l	mtp_angle_l	lumbar_extension	lumbar_bending	lumbar_rotation	arm_flex_r	arm_add_r	arm_rot_r	elbow_flex_r	pro_sup_r	arm_flex_l	arm_add_l	arm_rot_l	elbow_flex_l	pro_sup_l
      0.00000000	      9.95720928	     -4.85625508	    -11.31458454	     -6.28368720	      1.00355878	     -0.96443102	    -17.09059272	      8.57264580	     -7.18794460	      2.73220735	      6.36313784	     -9.46069697	      0.00000000	     10.75261098	     -4.93747534	     -1.98973767	     14.34338183	     -6.32293738	     -5.76690979	      0.00000000	    -19.41109014	      7.01794589	      7.09383637	      3.31333775	     -8.81127663	     13.83818908	     17.96809378	     64.04825382	    -11.99819318	     -2.06957080	     -3.53308938	     85.80767707	    104.60798433
      0.01666670	     16.02378371	     -3.92973294	     -9.94806243	     -6.29112028	      1.01207169	     -0.96677990	    -23.23654175	      6.77377854	     -7.41147155	      1.77243375	      4.57689583	     -9.01793488	      0.00000000	      4.52150769	     -1.66195848	      0.38466816	     14.49215767	     -9.97124935	     -9.22449143	      0.00000000	    -28.03500993	      4.13692002	      6.70168892	      5.21056359	     -7.54645506	     10.47377700	     18.53166712	     65.98281643	     -9.71437715	     -1.93820454	     -3.68648279	     91.63573086	    103.70132790
      0.03333330	     16.84931022	     -2.92140717	     -9.72647561	     -6.29371214	      1.01130831	     -0.96693528	    -23.91663034	      5.84897114	     -8.71892550	      1.77782591	      3.43326756	    -10.66623696	      0.00000000	      4.10875092	     -0.15684279	      0.89272555	     14.83781868	    -11.96900576	    -10.49756052	      0.00000000	    -30.27644742	      2.52693048	      7.83612221	      3.59493172	     -5.64768592	     -8.80704724	     22.77664666	     78.07292985	     -8.56463662	     -1.90735667	     -3.52671282	     94.51299190	    100.21326448
      0.05000000	     18.33853622	     -2.97990593	     -9.37396154	     -6.29659748	      1.01236008	     -0.96752944	    -25.28542440	      5.65044616	     -8.42540274	      2.19244470	      3.84607316	    -11.21133255	      0.00000000	      3.20835237	      0.17301787	      2.49771467	     15.78526602	    -13.29862378	    -12.70262122	      0.00000000	    -32.86421431	      1.86425476	      7.87955821	      3.84448332	     -5.47719535	     -9.41937969	     23.41782381	     80.16885676	     -8.34455402	     -2.35312349	     -2.45268831	     97.54610241	    100.23134691
      0.06666670	     18.46521061	     -3.24512451	     -9.10801970	     -6.29723788	      1.01395651	     -0.96822021	    -25.17844646	      5.90814053	     -7.72674050	      2.71595648	      3.21748066	    -12.55664126	      0.00000000	      3.82631370	     -0.07143003	      3.23470676	     17.21978550	    -14.82717355	    -14.64695226	      0.00000000	    -33.79217551	      2.17988857	      8.43461673	      3.13641651	     -3.84213297	    -22.86984386	     26.47101348	    103.15606458	     -8.55554582	     -2.06088440	     -2.22141610	     98.82257766	    103.43774459
      0.08333330	     19.10215931	     -3.32720682	     -8.74396724	     -6.29659835	      1.01790371	     -0.96926500	    -25.95243004	      5.95206188	     -7.90865183	      2.63894750	      2.61470857	    -12.17000835	      0.00000000	      3.60801075	     -0.08419008	      3.89235084	     18.22431774	    -15.46870161	    -15.12028099	      0.00000000	    -34.92145864	      1.96195448	      8.52064610	      3.22997782	     -3.97206700	    -22.13851130	     26.26399884	    103.95630098	     -8.75122468	     -2.42698361	     -1.29072097	    100.08619431	    103.61662974
      0.10000000	     19.30220276	     -3.55749680	     -8.53633646	     -6.29586208	      1.01944684	     -0.97086372	    -26.13099933	      6.13007371	     -7.73093095	      2.76251769	      2.45304935	    -12.09004339	      0.00000000	      3.77472449	     -0.36117747	      4.10408786	     19.23361080	    -15.68800881	    -15.05681276	      0.00000000	    -35.58313781	      2.17109241	      8.59100238	      3.38524137	     -4.06294542	    -22.09965923	     26.21716715	    104.08473915	     -9.02617941	     -2.40620633	     -1.24803496	    100.03582541	    103.67600727
      0.11666670	     19.61304428	     -3.89862233	     -8.34726788	     -6.29595569	      1.01954061	     -0.97309628	    -26.43819771	      6.36163999	     -7.79053081	      2.88663249	      2.02266126	    -12.12656408	      0.00000000	      3.78867483	     -0.57920280	      4.74270244	     20.26179239	    -15.45244547	    -15.04940398	      0.00000000	    -36.35008768	      2.45459504	      8.60530367	      3.76969123	     -4.32694995	    -22.09759937	     26.11673511	    104.28793575	     -9.16812919	     -2.34682870	     -1.29650903	    100.10468017	    103.80046810
      0.13333330	     19.70803153	     -3.99203210	     -8.48130881	     -6.29569415	      1.01960821	     -0.97469144	    -26.50140721	      6.26693617	     -7.80457194	      2.95986799	      1.97386444	    -12.15337098	      0.00000000	      3.89004363	     -0.56616847	      5.13784100	     20.96162729	    -15.41125796	    -14.90341322	      0.00000000	    -36.85774160	      2.37256305	      8.78646998	      3.97580439	     -4.51195981	    -22.11851085	     26.09523931	    104.33653899	     -9.39948971	     -2.42193873	     -1.38374509	     99.98610314	    103.83398301
      0.15000000	     19.95004973	     -4.38456423	     -8.34191662	     -6.29586575	      1.02135437	     -0.97688017	    -26.60060236	      6.54518913	     -7.58658785	      3.19187068	      2.07418559	    -12.15055192	      0.00000000	      3.90153092	     -0.75272283	      6.18457744	     21.67653764	    -14.96140719	    -14.40693304	      0.00000000	    -38.07298693	      2.82022044	      8.71573703	      4.58695933	     -4.83175084	    -22.14135487	     26.03224196	    104.48945199	     -9.01866527	     -2.19580280	     -1.57587775	     99.99401749	    103.94750246
      0.16666670	     20.42044688	     -4.55716729	     -8.34627907	     -6.29430318	      1.02240286	     -0.97835204	    -27.14262080	      6.54292184	     -7.79711584	      3.11046450	      3.13305133	    -11.17759433	      0.00000000	      3.54909175	     -0.80771489	      6.50156590	     22.19956034	    -13.37307065	    -12.33277821	      0.00000000	    -39.40210959	      2.72599498	      7.85016621	      5.73204035	     -4.81946156	    -21.74781573	     25.39354426	    106.59330523	     -9.43912240	     -1.86540632	     -3.04771060	    101.16845960	    105.57454369
      0.18333330	     20.44144442	     -4.52480597	     -8.38103378	     -6.29140841	      1.02136033	     -0.98029009	    -27.12062970	      6.34142932	     -7.45911008	      3.34250608	      3.36017028	    -11.11008924	      0.00000000	      3.65068490	     -0.61058462	      7.11503136	     22.64562528	    -13.17577235	    -12.23515907	      0.00000000	    -40.11606210	      2.70461528	      7.62677653	      6.07855338	     -5.19702146	    -21.78763804	     25.47167399	    106.64689595	     -8.83388890	     -1.96318711	     -3.15748115	    101.07999235	    105.62015882
      0.20000000	     20.88481649	     -4.66709432	     -8.04446659	     -6.28889845	      1.01892098	     -0.98247668	    -27.60205749	      6.40665319	     -7.25336065	      3.76281215	      4.62580331	    -11.38518282	      0.00000000	      3.31584155	     -0.48991931	      8.31421117	     23.25631933	    -11.95140374	    -12.37980788	      0.00000000	    -41.32721601	      2.95496156	      7.22286436	      6.40790549	     -5.22306830	    -21.74823374	     25.57248218	    106.85288731	     -7.85688768	     -2.07225667	     -3.27527444	    100.99882722	    105.78831690
